<svg xmlns="http://www.w3.org/2000/svg" viewBox="0 0 1216.16 542.37"><defs><style>.cls-1,.cls-3{fill:#0092d2;}.cls-2{fill:#231f20;}.cls-3{fill-rule:evenodd;}</style></defs><g id="Layer_2" data-name="Layer 2"><g id="Layer_1-2" data-name="Layer 1"><polygon class="cls-1" points="446.75 269.51 413.04 269.51 413.04 184.96 413.9 104.53 366.62 269.51 333.72 269.51 285.78 104.53 286.78 184.96 286.78 269.51 252.78 269.51 252.78 64.92 304.92 64.92 349.76 224.01 394.47 64.92 446.75 64.92 446.75 269.51"/><path class="cls-1" d="M539.45,244.75a33.07,33.07,0,0,0,14.19-3,28.76,28.76,0,0,0,11-9.08,43.48,43.48,0,0,0,7-15.28,86.64,86.64,0,0,0,2.42-21.76,87.76,87.76,0,0,0-2.42-21.82,43.75,43.75,0,0,0-7-15.33,28.76,28.76,0,0,0-11-9.08,33.07,33.07,0,0,0-14.19-3,33.54,33.54,0,0,0-14.45,3,28.86,28.86,0,0,0-11,9.08,44,44,0,0,0-7,15.33,83,83,0,0,0-2.53,21.82A81.91,81.91,0,0,0,507,217.35a43.69,43.69,0,0,0,7,15.28,28.86,28.86,0,0,0,11,9.08,33.54,33.54,0,0,0,14.45,3m0-126.59a87,87,0,0,1,30.38,5A61.22,61.22,0,0,1,593.05,138a65.9,65.9,0,0,1,14.8,24.25q5.19,14.47,5.21,33.33c0,12.48-1.75,23.57-5.21,33.17A65.85,65.85,0,0,1,593.05,253a62.68,62.68,0,0,1-23.22,14.91,86.93,86.93,0,0,1-30.38,5.06,88.2,88.2,0,0,1-30.6-5.06A62.44,62.44,0,0,1,485.59,253a66.77,66.77,0,0,1-14.86-24.24c-3.55-9.6-5.31-20.69-5.31-33.17s1.76-23.68,5.31-33.33A66.82,66.82,0,0,1,485.59,138a61,61,0,0,1,23.26-14.8A88.21,88.21,0,0,1,539.45,118.16Z"/><path class="cls-1" d="M663.27,231.6c8.88,8.77,19.4,13.15,31.42,13.15,9.8,0,17.49-4.18,23-12.48s8.25-21,8.25-37.92c0-16.1-2.58-28.17-7.68-36.11s-12.44-12-21.93-12a31,31,0,0,0-17.43,5.52q-8.29,5.49-15.64,15.94Zm0-121.91c0,4.7-.1,9.65-.25,14.71s-.21,10-.21,14.75a62,62,0,0,1,19.6-15.47,52.52,52.52,0,0,1,23.73-5.52c9.5,0,18,1.75,25.33,5.31a49.21,49.21,0,0,1,18.42,15.06c5,6.55,8.66,14.55,11.24,23.89A122.71,122.71,0,0,1,765,194.35a114.33,114.33,0,0,1-4.23,32.19,72.85,72.85,0,0,1-12.18,24.76A54.65,54.65,0,0,1,729,267.24a58.69,58.69,0,0,1-26.06,5.68,63.36,63.36,0,0,1-22.38-3.72A56.85,56.85,0,0,1,662.19,258v11.55H624.74V64.92h38.53Z"/><path class="cls-1" d="M815.26,96.49H776.88V64h38.38Zm0,173H776.88V121.56h38.38Z"/><rect class="cls-1" x="837.53" y="64.92" width="38.38" height="204.6"/><path class="cls-1" d="M1000.64,180.06q-2.25-19.19-11.3-28.63c-6-6.3-13.77-9.44-23.32-9.44-9.39,0-17.07,3.14-23.11,9.44s-9.8,15.84-11.3,28.63Zm-32.5,92.86q-18.35,0-32.4-5.37a64.09,64.09,0,0,1-23.83-15.32,67.46,67.46,0,0,1-14.76-24.35A95.08,95.08,0,0,1,892,195.54a98.75,98.75,0,0,1,5.06-32.66,67.84,67.84,0,0,1,14.6-24.35,62.74,62.74,0,0,1,23.16-15.17q13.7-5.17,31.21-5.2a86.42,86.42,0,0,1,30.33,5,62,62,0,0,1,23.12,14.7,65,65,0,0,1,14.7,24q5.17,14.24,5.16,32.5v9.23h-108a69.1,69.1,0,0,0,3.41,20,39.53,39.53,0,0,0,7.79,13.72,29.21,29.21,0,0,0,11.3,8A38.53,38.53,0,0,0,968,247.85c8,0,14.7-1.71,20.27-5.16s9.55-9.34,12.08-17.75h35.9a55.06,55.06,0,0,1-7.94,20.48,53.94,53.94,0,0,1-14.65,15.12,65.45,65.45,0,0,1-20.38,9.28A97,97,0,0,1,968.14,272.92Z"/><path class="cls-2" d="M1216.16,422.3a41.18,41.18,0,0,0-7.78-1.61,82,82,0,0,0-9.89-.52,40,40,0,0,0-18.71,4.61,49,49,0,0,0-16.17,14.36V539h-38.56V390.32h37.47v22.86c5.91-8.92,12.39-15.55,19.54-19.86a42.26,42.26,0,0,1,22.23-6.42c1.92,0,3.84.05,5.75.21s4,.46,6.12.83Zm-142.42,26.79q-2.25-19.29-11.35-28.76c-6.06-6.33-13.83-9.49-23.42-9.49-9.43,0-17.15,3.16-23.22,9.49s-9.85,15.9-11.35,28.76Zm-32.65,93.28c-12.28,0-23.11-1.82-32.54-5.39a64.31,64.31,0,0,1-23.94-15.39,67.76,67.76,0,0,1-14.83-24.46q-5.21-14.46-5.18-32.49a99.09,99.09,0,0,1,5.08-32.81,68,68,0,0,1,14.66-24.46,63,63,0,0,1,23.27-15.23q13.77-5.22,31.36-5.24a87,87,0,0,1,30.47,5,62.23,62.23,0,0,1,23.22,14.77,65.38,65.38,0,0,1,14.77,24.09q5.21,14.31,5.18,32.65v9.28H1004.09a69.39,69.39,0,0,0,3.42,20.11,39.64,39.64,0,0,0,7.83,13.78,29.2,29.2,0,0,0,11.34,8,38.76,38.76,0,0,0,14.26,2.6c8,0,14.77-1.72,20.36-5.19s9.59-9.38,12.13-17.83h36.07a55.36,55.36,0,0,1-8,20.58,54,54,0,0,1-14.72,15.18,65.6,65.6,0,0,1-20.47,9.33A97.44,97.44,0,0,1,1041.09,542.37Zm-72.45-3.22a105.13,105.13,0,0,1-22.18,2.29,69.23,69.23,0,0,1-18.5-2.13,32.61,32.61,0,0,1-12.23-6.06,24.94,24.94,0,0,1-7.21-9.64,57,57,0,0,1-3.57-13,107.54,107.54,0,0,1-1.25-16c-.05-5.8-.05-12-.05-18.6V418.62H884.37v-28.3h19.28v-37h38.56v37h24.25v28.3H942.21v71.56a64.5,64.5,0,0,0,.88,11.67,18.66,18.66,0,0,0,2.74,6.94,8.66,8.66,0,0,0,4.36,3.42,17.29,17.29,0,0,0,5.91.93,107.42,107.42,0,0,0,12.54-.78Zm-186.83-130q20.37-22.23,46-22.23,50.83,0,50.84,54.83V539H840.11V444.84c0-7.62-.93-13.58-2.75-17.88a14.89,14.89,0,0,0-8.91-8.7,33.07,33.07,0,0,0-14.87-.94q-15.41,1.24-30.68,19V539H744.34V390.32h37.47Zm-88.78,40q-2.25-19.29-11.35-28.76c-6.06-6.33-13.83-9.49-23.42-9.49q-14.14,0-23.22,9.49t-11.35,28.76Zm-32.65,93.28c-12.28,0-23.11-1.82-32.54-5.39a64.39,64.39,0,0,1-23.94-15.39,67.76,67.76,0,0,1-14.83-24.46q-5.21-14.46-5.18-32.49A99.09,99.09,0,0,1,589,431.83a68,68,0,0,1,14.66-24.46,62.93,62.93,0,0,1,23.28-15.23q13.76-5.22,31.35-5.24a87,87,0,0,1,30.47,5A62.23,62.23,0,0,1,712,406.7a65.38,65.38,0,0,1,14.77,24.09q5.21,14.31,5.18,32.65v9.28H623.38a69.39,69.39,0,0,0,3.42,20.11,39.64,39.64,0,0,0,7.83,13.78,29.16,29.16,0,0,0,11.35,8,38.66,38.66,0,0,0,14.25,2.6c8,0,14.77-1.72,20.36-5.19s9.59-9.38,12.13-17.83h36.07a55.36,55.36,0,0,1-8,20.58,54,54,0,0,1-14.72,15.18,65.6,65.6,0,0,1-20.47,9.33A97.44,97.44,0,0,1,660.38,542.37Zm-171.07,0c-14.62,0-27.83-2.33-39.8-7A81.19,81.19,0,0,1,418.68,514a92.76,92.76,0,0,1-19.44-33.79c-4.25-12.9-6.37-27.52-6.37-43.95q0-48.64,25.81-77.52a83,83,0,0,1,31-21.56q17.8-7.14,39.65-7.15a109.5,109.5,0,0,1,31.4,4.2,80.26,80.26,0,0,1,26,13.11q14.07,10.33,20.94,23.52a84.3,84.3,0,0,1,8.65,30.06H536.83a47.43,47.43,0,0,0-4.92-15.7,37.71,37.71,0,0,0-9.85-11.87,43,43,0,0,0-14.25-7.46,61.08,61.08,0,0,0-18.24-2.59A54.8,54.8,0,0,0,466.51,368a48.85,48.85,0,0,0-17.78,14.09A66.59,66.59,0,0,0,437.33,405a110.15,110.15,0,0,0-4,31.24,111.68,111.68,0,0,0,3.94,31.15,67.24,67.24,0,0,0,11.19,22.86A47.68,47.68,0,0,0,466,504.33a54.55,54.55,0,0,0,23.11,4.77q20.53,0,32.91-10.21c8.24-6.84,13.21-16.69,14.82-29.59H576a94.86,94.86,0,0,1-8.6,31.15A66.27,66.27,0,0,1,549,523.61a78.26,78.26,0,0,1-26.64,14.2C512.58,540.87,501.54,542.37,489.31,542.37Z"/><rect class="cls-2" width="177.49" height="269.37"/><polygon class="cls-3" points="189.16 538.74 366.65 538.74 177.49 269.37 0 269.37 189.16 538.74"/></g></g></svg>